<svg width="579" height="95" viewBox="0 0 579 95" fill="none" xmlns="http://www.w3.org/2000/svg">
<path d="M36.904 94.024C28.968 94.024 21.928 90.952 18.088 85.96V93H0.296V0.455994H18.088V35.272C22.184 30.408 28.968 27.464 36.648 27.464C54.824 27.464 66.216 40.904 66.216 60.744C66.216 80.712 54.696 94.024 36.904 94.024ZM32.808 78.664C42.28 78.664 48.552 71.496 48.552 60.744C48.552 49.864 42.28 42.696 32.808 42.696C23.464 42.696 17.064 49.864 17.064 60.744C17.064 71.496 23.464 78.664 32.808 78.664ZM77.421 93V28.488H95.213V39.24C98.669 31.176 103.533 28.488 111.469 28.488H118.637V43.336H108.013C99.181 43.336 95.213 50.632 95.213 61.64V93H77.421ZM154.489 94.024C132.473 94.024 121.337 76.872 121.337 60.616C121.337 44.36 131.321 27.464 153.209 27.464C175.993 27.464 184.953 44.36 184.953 58.952C184.953 61.384 184.825 63.304 184.697 64.712H138.361C139.769 73.8 145.401 79.432 154.489 79.432C161.657 79.432 166.393 76.616 167.801 71.112H185.209C182.649 85.064 170.361 94.024 154.489 94.024ZM138.745 53.32H167.289C166.649 46.152 161.785 40.52 153.209 40.52C145.529 40.52 140.537 45 138.745 53.32ZM214.981 94.024C202.437 94.024 193.733 85.704 193.733 74.696C193.733 62.024 203.333 54.216 218.181 54.216H227.525C231.493 54.216 233.157 52.68 233.157 49.608C233.157 44.232 228.933 40.52 221.637 40.52C213.829 40.52 209.861 45.384 209.605 50.76H193.733C194.501 37.832 204.869 27.464 222.661 27.464C238.917 27.464 250.821 36.936 250.821 51.528V93H233.157V84.04C230.853 90.056 223.813 94.024 214.981 94.024ZM219.461 81.096C228.165 81.096 233.157 74.824 233.157 66.504V65.736H220.741C214.725 65.736 210.885 68.808 210.885 73.8C210.885 78.408 214.341 81.096 219.461 81.096ZM264.671 93V0.455994H282.591V50.376L304.991 28.488H327.519L301.791 53.832L329.567 93H308.063L289.759 65.736L282.591 72.776V93H264.671ZM335.046 93V28.488H352.838V37.448C356.422 31.176 363.59 27.464 372.55 27.464C387.014 27.464 396.486 37.96 396.486 52.808V93H378.566V56.776C378.566 48.968 373.574 43.336 366.15 43.336C358.342 43.336 352.838 49.352 352.838 57.672V93H335.046ZM410.296 93V28.488H428.088V93H410.296ZM409.784 0.455994H428.728V19.272H409.784V0.455994ZM442.671 93V28.488H460.463V37.448C464.047 31.176 471.215 27.464 480.175 27.464C494.639 27.464 504.111 37.96 504.111 52.808V93H486.191V56.776C486.191 48.968 481.199 43.336 473.775 43.336C465.967 43.336 460.463 49.352 460.463 57.672V93H442.671ZM547.489 94.024C525.473 94.024 514.337 76.872 514.337 60.616C514.337 44.36 524.321 27.464 546.209 27.464C568.993 27.464 577.953 44.36 577.953 58.952C577.953 61.384 577.825 63.304 577.697 64.712H531.361C532.769 73.8 538.401 79.432 547.489 79.432C554.657 79.432 559.393 76.616 560.801 71.112H578.209C575.649 85.064 563.361 94.024 547.489 94.024ZM531.745 53.32H560.289C559.649 46.152 554.785 40.52 546.209 40.52C538.529 40.52 533.537 45 531.745 53.32Z" fill="#fffdfb"/>
</svg>
